<?xml version="1.0" encoding="UTF-8"?>
<svg id="Layer_3" data-name="Layer 3" xmlns="http://www.w3.org/2000/svg" viewBox="0 0 302.96 66.05">
  <defs>
    <style>
      .cls-1 {
        fill: #010101;
      }

      .cls-2 {
        fill: #231f20;
        font-family: MDNichromeTest-LightOblique, 'MD Nichrome Test';
        font-size: 15.93px;
        font-style: oblique;
        font-weight: 300;
      }

      .cls-3 {
        letter-spacing: .18em;
      }

      .cls-4 {
        letter-spacing: .18em;
      }

      .cls-5 {
        letter-spacing: .16em;
      }

      .cls-6 {
        letter-spacing: .17em;
      }

      .cls-7 {
        letter-spacing: .15em;
      }
    </style>
  </defs>
  <text class="cls-2" transform="translate(80.58 63.25) scale(1.06 1)"><tspan class="cls-3" x="0" y="0">FUTURE A</tspan><tspan class="cls-6" x="68.41" y="0">R</tspan><tspan class="cls-3" x="77.52" y="0">TI</tspan><tspan class="cls-7" x="91.14" y="0">F</tspan><tspan class="cls-5" x="98.24" y="0">A</tspan><tspan class="cls-4" x="107.64" y="0">C</tspan><tspan class="cls-3" x="118.75" y="0">T</tspan></text>
  <g>
    <polygon class="cls-1" points="177.32 22.73 174.96 26.18 191.78 26.18 194.16 22.73 177.32 22.73"/>
    <polygon class="cls-1" points="219.88 16.2 217.13 20.22 234 20.22 236.78 16.2 219.88 16.2"/>
    <polygon class="cls-1" points="141.58 8.29 167.65 8.29 169.43 3.13 146.89 3.13 141.58 8.29"/>
    <path class="cls-1" d="M82.4,8.29h16.96l2.09-2.97s4.5-.03,4.54,2.97h17.34c.21-.74.33-1.47.33-2.21,0-1.21-.47-2.18-1.24-2.96h-36.46l-3.55,5.17Z"/>
    <polygon class="cls-1" points="190.75 3.13 187.21 8.29 204.16 8.29 207.74 3.13 190.75 3.13"/>
    <polygon class="cls-1" points="186.27 9.66 183.13 14.26 200.04 14.26 203.21 9.66 186.27 9.66"/>
    <polygon class="cls-1" points="181.79 16.2 179.04 20.22 195.91 20.22 198.69 16.2 181.79 16.2"/>
    <polygon class="cls-1" points="210.93 29.27 208.97 32.14 225.74 32.14 227.73 29.27 210.93 29.27"/>
    <path class="cls-1" d="M106.81,35.8h-18.09c-1.93,1.24-3.98,1.92-5.73,2.29h21.16c.93-.69,1.83-1.45,2.67-2.29Z"/>
    <polygon class="cls-1" points="215.41 22.73 213.05 26.18 229.87 26.18 232.25 22.73 215.41 22.73"/>
    <polygon class="cls-1" points="57.07 26.18 58.25 22.73 41.92 22.73 40.65 26.18 57.07 26.18"/>
    <polygon class="cls-1" points="83.07 32.14 85.04 29.27 67.98 29.27 66.01 32.14 83.07 32.14"/>
    <polygon class="cls-1" points="78.97 38.1 80.55 35.8 63.49 35.8 61.91 38.1 78.97 38.1"/>
    <polygon class="cls-1" points="95.17 14.26 98.39 9.66 81.46 9.66 78.3 14.26 95.17 14.26"/>
    <polygon class="cls-1" points="157.39 38.1 158.18 35.8 113.32 35.8 110.96 38.1 128 38.1 129.56 36.54 141.26 36.54 140.69 38.1 157.39 38.1"/>
    <polygon class="cls-1" points="168.37 35.8 166.79 38.1 183.53 38.1 185.12 35.8 168.37 35.8"/>
    <path class="cls-1" d="M119.34,14.26c1.56-1.44,2.75-3,3.48-4.59h-17.09c-.18.53-.46,1.12-.88,1.78-.69,1.1-1.54,2.02-2.47,2.81h16.96Z"/>
    <path class="cls-1" d="M109.7,32.14c.65-1.05,1.1-2.01,1.39-2.87h-17.07c-.18.59-.47,1.25-.9,1.99-.18.31-.37.6-.57.88h17.15Z"/>
    <polygon class="cls-1" points="258.27 16.2 255.49 20.22 287.66 20.22 288.26 19.26 272.9 19.26 275.02 16.2 258.27 16.2"/>
    <polygon class="cls-1" points="206.45 35.8 204.88 38.1 221.62 38.1 223.2 35.8 206.45 35.8"/>
    <polygon class="cls-1" points="126.75 22.73 123.21 26.18 139.98 26.18 143.43 22.73 126.75 22.73"/>
    <polygon class="cls-1" points="159.44 32.14 160.43 29.27 143.94 29.27 143.15 31.43 134.7 31.43 136.87 29.27 120.03 29.27 117.09 32.14 159.44 32.14"/>
    <polygon class="cls-1" points="146.35 22.73 145.08 26.18 161.5 26.18 162.68 22.73 146.35 22.73"/>
    <polygon class="cls-1" points="165.6 14.26 167.18 9.66 140.17 9.66 135.46 14.26 165.6 14.26"/>
    <path class="cls-1" d="M70.1,26.18h17.06l1.51-2.19s3.82.05,5.14,2.19h17.56c-.3-1.62-1.38-2.71-2.63-3.44h-36.28l-2.37,3.44Z"/>
    <polygon class="cls-1" points="172.84 29.27 170.88 32.14 187.65 32.14 189.64 29.27 172.84 29.27"/>
    <polygon class="cls-1" points="145.96 20.22 148.04 18.14 147.28 20.22 163.55 20.22 164.93 16.2 133.46 16.2 129.33 20.22 145.96 20.22"/>
    <path class="cls-1" d="M108.5,20.22c3.2-1,6.05-2.39,8.4-4.02h-17.44c-3.6,1.87-7.2,2.21-7.2,2.21l1.55-2.21h-16.84l-2.76,4.02h34.3Z"/>
    <path class="cls-1" d="M121.43,2.33C117.71-.15,110.58,0,110.58,0h-22.48l-1.6,2.33h34.94Z"/>
    <polygon class="cls-1" points="65.27 2.33 66.08 0 45.67 0 43.27 2.33 65.27 2.33"/>
    <polygon class="cls-1" points="34.69 42.34 33.91 44.46 50.77 44.46 51.5 42.34 34.69 42.34"/>
    <polygon class="cls-1" points="2.18 42.34 0 44.46 17.17 44.46 19.3 42.34 2.18 42.34"/>
    <polygon class="cls-1" points="169.71 2.33 170.51 0 150.1 0 147.7 2.33 169.71 2.33"/>
    <polygon class="cls-1" points="208.29 2.33 209.91 0 192.89 0 191.29 2.33 208.29 2.33"/>
    <polygon class="cls-1" points="163.89 42.34 162.44 44.46 193.17 44.46 194.4 42.34 163.89 42.34"/>
    <polygon class="cls-1" points="246.38 2.33 247.99 0 230.98 0 229.38 2.33 246.38 2.33"/>
    <polygon class="cls-1" points="201.98 42.34 200.53 44.46 231.26 44.46 232.49 42.34 201.98 42.34"/>
    <path class="cls-1" d="M58.99,42.34l-1.46,2.12h25.57c2.99,0,7.83-.46,12.76-2.12h-36.87Z"/>
    <polygon class="cls-1" points="240.23 42.34 238.76 44.46 272.96 44.46 274.19 42.34 240.23 42.34"/>
    <polygon class="cls-1" points="106.61 42.34 104.43 44.46 121.6 44.46 123.73 42.34 106.61 42.34"/>
    <polygon class="cls-1" points="139.12 42.34 138.34 44.46 155.2 44.46 155.93 42.34 139.12 42.34"/>
    <polygon class="cls-1" points="244.74 35.8 243.15 38.1 259.86 38.1 261.44 35.8 244.74 35.8"/>
    <polygon class="cls-1" points="56 29.27 39.51 29.27 38.71 31.43 30.27 31.43 32.44 29.27 15.6 29.27 12.66 32.14 55.01 32.14 56 29.27"/>
    <polygon class="cls-1" points="39 22.73 22.31 22.73 18.78 26.18 35.54 26.18 39 22.73"/>
    <polygon class="cls-1" points="62.75 9.66 35.74 9.66 31.03 14.26 61.17 14.26 62.75 9.66"/>
    <polygon class="cls-1" points="43.61 18.14 42.85 20.22 59.12 20.22 60.5 16.2 29.03 16.2 24.9 20.22 41.53 20.22 43.61 18.14"/>
    <polygon class="cls-1" points="301.36 2.33 302.96 0 269.45 0 267.83 2.33 301.36 2.33"/>
    <polygon class="cls-1" points="228.84 3.13 225.3 8.29 242.25 8.29 245.83 3.13 228.84 3.13"/>
    <polygon class="cls-1" points="65 3.13 42.45 3.13 37.15 8.29 63.22 8.29 65 3.13"/>
    <polygon class="cls-1" points="259.61 14.26 276.37 14.26 277.92 12.01 279.54 9.66 262.78 9.66 259.61 14.26"/>
    <polygon class="cls-1" points="263.72 8.29 280.49 8.29 282.26 5.73 298.97 5.79 300.81 3.13 267.29 3.13 263.72 8.29"/>
    <polygon class="cls-1" points="253.76 22.73 251.38 26.18 268.11 26.18 268.99 24.91 284.72 24.91 286.08 22.73 253.76 22.73"/>
    <polygon class="cls-1" points="224.36 9.66 221.21 14.26 238.12 14.26 241.3 9.66 224.36 9.66"/>
    <polygon class="cls-1" points="249.25 29.27 247.27 32.14 263.98 32.14 265.97 29.27 249.25 29.27"/>
    <polygon class="cls-1" points="23.56 38.1 25.13 36.54 36.83 36.54 36.25 38.1 52.96 38.1 53.75 35.8 8.89 35.8 6.53 38.1 23.56 38.1"/>
  </g>
</svg>